HIERARCHY
ROOT SpineBase
{
  OFFSET 0.000000 0.000000 0.000000
  CHANNELS 6 Xposition Yposition Zposition Zrotation Xrotation Yrotation
  JOINT SpineMid
  {
    OFFSET 0.000000 29.049811 0.000000
    CHANNELS 3 Zrotation Xrotation Yrotation
    JOINT SpineShoulder
    {
      OFFSET -0.179156 21.538353 -0.683190
      CHANNELS 3 Zrotation Xrotation Yrotation
      JOINT Neck
      {
        OFFSET -0.088894 7.099234 -0.522874
        CHANNELS 3 Zrotation Xrotation Yrotation
        JOINT Head
        {
          OFFSET -1.999247 14.565667 -3.484940
          CHANNELS 3 Zrotation Xrotation Yrotation
          End Site
          {
            OFFSET 0 0 0
          }
        }
      }
      JOINT ShoulderLeft
      {
        OFFSET -16.717311 -6.250700 2.729186
        CHANNELS 3 Zrotation Xrotation Yrotation
        JOINT ElbowLeft
        {
          OFFSET -2.108761 -26.365275 1.236684
          CHANNELS 3 Zrotation Xrotation Yrotation
          JOINT WristLeft
          {
            OFFSET 0.222335 -21.837718 -5.936475
            CHANNELS 3 Zrotation Xrotation Yrotation
            JOINT HandLeft
            {
              OFFSET 2.156484 -4.739414 -0.004613
              CHANNELS 3 Zrotation Xrotation Yrotation
              JOINT HandTipLeft
              {
                OFFSET 0.455336 -7.925147 -1.095466
                CHANNELS 3 Zrotation Xrotation Yrotation
                End Site
                {
                  OFFSET 0 0 0
                }
              }
              JOINT ThumbLeft
              {
                OFFSET -2.680953 0.712556 -1.305827
                CHANNELS 3 Zrotation Xrotation Yrotation
                End Site
                {
                  OFFSET 0 0 0
                }
              }
            }
          }
        }
      }
      JOINT ShoulderRight
      {
        OFFSET 17.216414 -3.619658 -1.932425
        CHANNELS 3 Zrotation Xrotation Yrotation
        JOINT ElbowRight
        {
          OFFSET 5.408081 -23.975161 2.751320
          CHANNELS 3 Zrotation Xrotation Yrotation
          JOINT WristRight
          {
            OFFSET -2.254908 -19.850073 -11.448645
            CHANNELS 3 Zrotation Xrotation Yrotation
            JOINT HandRight
            {
              OFFSET -3.485628 -1.559465 -2.713690
              CHANNELS 3 Zrotation Xrotation Yrotation
              JOINT HandTipRight
              {
                OFFSET -1.416224 -3.443846 -5.028987
                CHANNELS 3 Zrotation Xrotation Yrotation
                End Site
                {
                  OFFSET 0 0 0
                }
              }
              JOINT ThumbRight
              {
                OFFSET 0.600761 -0.504508 -3.732907
                CHANNELS 3 Zrotation Xrotation Yrotation
                End Site
                {
                  OFFSET 0 0 0
                }
              }
            }
          }
        }
      }
    }
  }
  JOINT HipLeft
  {
    OFFSET -7.875547 0.103646 -2.967736
    CHANNELS 3 Zrotation Xrotation Yrotation
    JOINT KneeLeft
    {
      OFFSET 2.338874 -36.307491 6.379793
      CHANNELS 3 Zrotation Xrotation Yrotation
      JOINT AnkleLeft
      {
        OFFSET 7.054138 -35.538541 9.373975
        CHANNELS 3 Zrotation Xrotation Yrotation
        JOINT FootLeft
        {
          OFFSET -3.606274 -7.503001 0.698068
          CHANNELS 3 Zrotation Xrotation Yrotation
          End Site
          {
            OFFSET 0 0 0
          }
        }
      }
    }
  }
  JOINT HipRight
  {
    OFFSET 7.289141 1.179515 -4.070335
    CHANNELS 3 Zrotation Xrotation Yrotation
    JOINT KneeRight
    {
      OFFSET 0.882460 -16.300527 -32.883567
      CHANNELS 3 Zrotation Xrotation Yrotation
      JOINT AnkleRight
      {
        OFFSET 1.479209 -29.589802 27.083718
        CHANNELS 3 Zrotation Xrotation Yrotation
        JOINT FootRight
        {
          OFFSET -1.786636 -4.413487 -13.540786
          CHANNELS 3 Zrotation Xrotation Yrotation
          End Site
          {
            OFFSET 0 0 0
          }
        }
      }
    }
  }
}
MOTION
Frames: 7
Frame Time: 0.033333
23.939871 80.397581 315.358528 3.310568 -2.952579 -1.635391 -0.195798 -0.444746 1.808040 0.106424 -0.282905 0.124358 -4.358633 3.579002 -0.305499 0.000000 0.000000 0.000000 6.298046 57.523985 -10.024403 86.424321 31.748709 -5.871856 -16.384928 2.712934 42.491792 17.038073 -6.642648 -27.111882 0.000000 0.000000 0.000000 0.000000 0.000000 0.000000 5.156439 19.944102 2.824309 -17.138741 75.368196 -2.933915 23.242900 -33.765340 -51.652427 -40.843927 -37.976671 59.899002 0.000000 0.000000 0.000000 0.000000 0.000000 0.000000 -16.200838 12.562649 2.001111 -1.212462 -4.425469 -1.636786 54.440723 54.207674 -53.231225 0.000000 0.000000 0.000000 -6.167018 -68.861023 -8.433422 -130.621635 79.128282 132.464058 4.392959 -25.272437 -5.529721 0.000000 0.000000 0.000000
22.842112 80.172480 314.525647 4.929625 0.612783 -2.530806 -0.312747 -0.207225 2.660167 -0.023118 -0.337001 0.202514 -5.365045 1.373357 -0.324930 0.000000 0.000000 0.000000 15.273686 66.697806 -19.344868 76.417600 34.837502 5.267253 -7.845597 -6.592253 52.666020 24.003517 -7.098330 -24.208455 0.000000 0.000000 0.000000 0.000000 0.000000 0.000000 5.047611 22.948315 4.086933 -3.413297 73.052885 -18.145817 -7.033079 -22.404947 -55.574867 -14.535519 -15.340608 54.748138 0.000000 0.000000 0.000000 0.000000 0.000000 0.000000 -18.266545 9.276741 1.853279 -2.220701 -2.974313 -1.574436 49.028594 53.447073 -47.896113 0.000000 0.000000 0.000000 -6.364174 -72.458730 -7.516314 -128.088029 79.800199 130.903878 2.343727 -23.409833 -4.744342 0.000000 0.000000 0.000000
21.420562 81.309935 313.067770 6.144155 -0.219981 -0.004497 -0.457409 -0.095546 0.199731 -0.165165 -0.413605 0.240104 -11.635967 7.958127 -0.385998 0.000000 0.000000 0.000000 22.046581 72.541361 -27.385861 69.165830 38.207408 7.559895 -7.339077 -14.725235 56.884680 34.663061 -8.490444 -19.433998 0.000000 0.000000 0.000000 0.000000 0.000000 0.000000 4.518632 24.874072 4.043759 8.603327 70.816562 -28.825744 -17.459557 -19.036525 -56.760499 -7.527071 -10.256304 52.533271 0.000000 0.000000 0.000000 0.000000 0.000000 0.000000 -19.322209 11.375434 -0.237841 -2.500250 -2.225955 -1.387034 46.827807 53.436100 -46.752538 0.000000 0.000000 0.000000 -15.505513 -71.715705 -16.485861 -126.588069 80.130295 130.570596 0.402090 -22.900683 -4.126322 0.000000 0.000000 0.000000
20.027195 82.733553 311.396845 5.284963 -3.927509 4.151555 -0.420825 -0.052513 -3.831649 -0.198658 -0.450332 0.191328 -13.816951 15.665383 0.902520 0.000000 0.000000 0.000000 19.484676 78.518649 -27.178625 62.893010 43.445856 7.241926 -17.365716 -11.969010 49.885535 44.157334 -13.994044 -2.395845 0.000000 0.000000 0.000000 0.000000 0.000000 0.000000 4.296185 25.110664 3.293422 9.270061 64.265220 -26.350490 0.484368 -37.467234 -48.031926 -39.145325 -7.210417 53.712264 0.000000 0.000000 0.000000 0.000000 0.000000 0.000000 -17.110440 16.196934 -3.124293 -3.033900 -1.601711 -1.315746 46.798351 53.427811 -47.126200 0.000000 0.000000 0.000000 -23.494051 -68.010285 -26.618691 -128.785383 79.927373 133.949899 -1.205292 -23.254937 -4.033307 0.000000 0.000000 0.000000
18.169463 85.268154 309.268924 4.644453 -10.695293 7.051305 -0.422672 -0.105505 -6.530072 -0.246909 -0.417776 0.143269 -15.638028 25.600766 3.433865 0.000000 0.000000 0.000000 -31.360450 75.877831 16.228490 85.891589 52.613898 -4.640452 -33.013501 -5.673775 36.888001 54.841525 -14.777900 13.115974 0.000000 0.000000 0.000000 0.000000 0.000000 0.000000 3.465607 22.853639 1.485391 18.374901 65.898563 -31.125916 -1.147396 -44.468711 -40.319478 -49.760411 5.594508 52.166913 0.000000 0.000000 0.000000 0.000000 0.000000 0.000000 -14.320783 22.740588 -4.425092 -3.413192 -1.002624 -1.202950 47.573173 53.167698 -48.116656 0.000000 0.000000 0.000000 -23.472604 -61.493894 -28.403604 -128.999122 80.116843 135.183509 -2.451500 -24.838218 -3.909739 0.000000 0.000000 0.000000
15.855779 87.803961 307.032012 4.633617 -19.436292 9.016161 -0.493302 -0.198477 -8.171539 -0.187455 -0.312372 0.109230 -18.475240 36.203549 7.124200 0.000000 0.000000 0.000000 -40.668516 63.684586 22.587027 118.975144 54.837768 -40.641683 -47.410822 2.288767 25.458392 61.540164 -12.048669 22.510047 0.000000 0.000000 0.000000 0.000000 0.000000 0.000000 1.517229 17.183509 -1.116376 44.983634 70.600381 -53.486492 -8.355058 -55.068516 -25.587087 -61.466156 28.941093 52.450598 0.000000 0.000000 0.000000 0.000000 0.000000 0.000000 -11.307557 30.280370 -4.955808 -3.699076 -0.571054 -1.118224 40.741287 49.511093 -41.114659 0.000000 0.000000 0.000000 -20.815703 -53.151277 -27.665561 -124.787398 79.938646 131.912616 -3.350322 -27.529943 -3.703317 0.000000 0.000000 0.000000
13.046555 91.048912 303.980699 7.970961 -32.947513 10.283387 -0.441778 -0.016969 -7.855866 -0.437819 0.234283 0.225614 -28.548353 47.562737 15.075822 0.000000 0.000000 0.000000 -4.186929 39.679966 -0.050817 133.420319 30.122472 -94.484624 -43.309844 1.782027 30.193035 58.095031 -16.450225 28.711112 0.000000 0.000000 0.000000 0.000000 0.000000 0.000000 -1.296560 8.378643 -4.905323 77.606281 47.620181 -85.119968 57.099659 -48.059902 71.075784 -162.643870 53.404123 97.225822 0.000000 0.000000 0.000000 0.000000 0.000000 0.000000 -11.953954 41.480703 -2.392872 -4.024971 0.649540 -0.883299 41.142276 44.966699 -37.572989 0.000000 0.000000 0.000000 -17.331255 -40.948679 -22.883443 -121.284286 79.561084 129.552411 -3.613945 -32.727067 -5.947996 0.000000 0.000000 0.000000
